HIERARCHY
ROOT Hips
{
	OFFSET 0.00000 0.00000 0.00000
	CHANNELS 6 Xposition Yposition Zposition Yrotation Zrotation Xrotation 
	JOINT Lumbar
	{
		OFFSET 0 0 0
		CHANNELS 3 Zrotation Xrotation Yrotation
		JOINT Neck
		{
			OFFSET 0.00 0.2701 0.00
			CHANNELS 3 Zrotation Xrotation Yrotation
			End Site
			{
				OFFSET 0.00 0.1379 0.00
			}
		}
		JOINT RightShoulder
		{
			OFFSET 0.0119 0.2289 0.1181
			CHANNELS 3 Zrotation Xrotation Yrotation
			JOINT RightElbow
			{
				OFFSET 0.00 -0.1475 0.00
				CHANNELS 2 Zrotation Yrotation
				JOINT RightWrist
				{
					OFFSET 0.00 -0.1605 0.00
					CHANNELS 2 Zrotation Xrotation
					End Site
					{
						OFFSET 0.0040 -0.1068 0.0006
					}
				}
			}
		}
		JOINT LeftShoulder
		{
			OFFSET 0.0119 0.2289 -0.1181
			CHANNELS 3 Zrotation Xrotation Yrotation
			JOINT LeftElbow
			{
				OFFSET 0.00 -0.1475 0.00
				CHANNELS 2 Zrotation Yrotation
				JOINT LeftWrist
				{
					OFFSET 0.00 -0.1605 0.00
					CHANNELS 2 Zrotation Xrotation
					End Site
					{
						OFFSET 0.0040 -0.1068 -0.0006
					}
				}
			}
		}
	}
	JOINT RightHip
	{
		OFFSET 0.0316 -0.0424 0.0458
		CHANNELS 3 Zrotation Xrotation Yrotation
		JOINT RightKnee
		{
			OFFSET 0.00 -0.2438 0.00
			CHANNELS 1 Zrotation
			JOINT RightAnkle
			{
				OFFSET 0.00 -0.2449 0.00
				CHANNELS 3 Zrotation Xrotation Yrotation
				End Site
				{
					OFFSET 0.1237 -0.0542 0.0051
				}
			}
		}
	}
	JOINT LeftHip
	{
		OFFSET 0.0316 -0.0424 -0.0458
		CHANNELS 3 Zrotation Xrotation Yrotation
		JOINT LeftKnee
		{
			OFFSET 0.00 -0.2438 0.00
			CHANNELS 1 Zrotation
			JOINT LeftAnkle
			{
				OFFSET 0.00 -0.2449 0.00
				CHANNELS 3 Zrotation Xrotation Yrotation
				End Site
				{
					OFFSET 0.1237 -0.0542 -0.0051
				}
			}
		}
	}
}
MOTION
Frames: 22
Frame Time: 0.02
-0.08652 -0.01336 -0.15274 748.38763 -25.72445 -11.1302 29.41477 7.42908 -10.54266 -25.80443 16.98541 -2.11994 -20.58712 -12.50285 -26.60713 19.42702 80.41887 -4.95146 0.45872 -38.64232 37.99648 -10.04785 74.66353 -80.72193 -3.61398 -1.12758 37.44424 -8.2857 -11.69141 -23.47412 -9.27418 -1.6484 -3.17185 26.73223 4.21332 7.30664 -29.28892 -7.01793 2.66324 3.52258
-0.08438 -0.01315 -0.1539 750.21125 -26.0802 -10.76965 29.12335 7.86906 -10.27268 -25.99669 17.4656 -2.11994 -20.11544 -12.63931 -26.70424 19.33995 80.42339 -5.00944 0.21867 -40.08126 37.35538 -9.25719 73.90056 -80.74281 -3.55372 -1.1199 37.91821 -8.60361 -11.1603 -23.40444 -9.26149 -1.61162 -3.15224 26.65438 4.16772 7.22341 -29.06229 -7.00032 2.49814 3.44447
-0.08207 -0.01276 -0.15488 752.03569 -26.4945 -10.36658 28.838 8.38165 -9.98021 -26.15898 17.81504 -2.11994 -19.59004 -12.76276 -26.89248 19.39912 80.4267 -5.05608 -0.00395 -41.51269 36.69745 -8.33102 72.8228 -80.75798 -3.45135 -1.10548 38.41062 -8.90948 -10.59034 -23.2046 -9.25532 -1.56647 -3.12812 26.64196 4.09012 6.9843 -28.79419 -7.01517 2.3371 3.37145
-0.07985 -0.01246 -0.1559 753.86661 -26.88853 -9.97694 28.54536 8.86903 -9.69702 -26.32336 18.2157 -2.11994 -19.07944 -12.89644 -27.05016 19.39561 80.43103 -5.11007 -0.2364 -42.9187 36.05469 -7.47289 71.87304 -80.78493 -3.36293 -1.09285 38.90299 -9.22268 -10.04538 -23.06529 -9.24756 -1.52347 -3.10537 26.61769 4.02801 6.82175 -28.55623 -7.01634 2.17377 3.29586
-0.0776 -0.01212 -0.15706 755.67291 -27.2625 -9.6129 28.27072 9.32527 -9.41771 -26.53209 18.66142 -2.11994 -18.60411 -13.01136 -27.16057 19.37455 80.43363 -5.15894 -0.46347 -44.4563 35.37466 -6.574 70.98528 -80.77122 -3.30131 -1.08539 39.36904 -9.53058 -9.4704 -22.92027 -9.23494 -1.48598 -3.08484 26.52688 3.96248 6.63492 -28.27103 -7.01314 2.01146 3.22098
-0.07535 -0.01182 -0.15791 757.53056 -27.68821 -9.18377 27.96018 9.86238 -9.12618 -26.64317 18.97851 -2.11994 -18.04443 -13.16337 -27.39121 19.42471 80.43937 -5.21406 -0.69641 -45.71424 34.77152 -5.7342 69.89663 -80.84127 -3.17204 -1.06551 39.88744 -9.84585 -8.94604 -22.75797 -9.23331 -1.43665 -3.05938 26.58467 3.89599 6.46214 -28.07309 -7.02684 1.84829 3.14598
-0.07328 -0.01166 -0.15798 759.50961 -28.25955 -8.6027 27.55298 10.61201 -8.79142 -26.48925 18.96657 -2.11994 -17.26686 -13.41001 -27.93621 19.64473 80.45496 -5.29058 -0.95161 -46.20061 34.37043 -5.07672 68.30065 -81.14761 -2.86543 -1.01453 40.58933 -10.1821 -8.6005 -22.55864 -9.26446 -1.34331 -3.01512 27.06343 3.83797 6.36075 -28.14067 -7.07748 1.68228 3.06947
-0.07119 -0.01154 -0.15775 761.5423 -28.87713 -7.9546 27.10929 11.43904 -8.44739 -26.23896 18.82766 -2.11994 -16.4065 -13.69646 -28.59797 19.93032 80.47361 -5.37276 -1.21251 -46.40404 34.05025 -4.48814 66.51887 -81.53797 -2.4916 -0.95106 41.33525 -10.52616 -8.30283 -22.35069 -9.30562 -1.24076 -2.96719 27.68411 3.77945 6.27994 -28.29525 -7.14429 1.5154 2.99277
-0.06904 -0.0114 -0.15765 763.56393 -29.46144 -7.32573 26.67945 12.22595 -8.11775 -26.03543 18.75116 -2.11994 -15.58381 -13.97176 -29.20415 20.18003 80.49016 -5.45112 -1.46946 -46.73712 33.70355 -3.87839 64.84123 -81.88794 -2.14841 -0.89235 42.03079 -10.86784 -7.96299 -22.15941 -9.33948 -1.15135 -2.92516 28.22072 3.71896 6.19316 -28.40027 -7.20479 1.34854 2.91611
-0.06717 -0.01123 -0.15757 765.53317 -30.09911 -6.74225 26.25979 13.03643 -7.74593 -25.81918 18.65689 -2.11994 -14.75969 -14.21708 -29.82617 20.4594 80.5094 -5.53524 -1.73213 -47.06797 33.31439 -3.21912 63.06882 -82.24743 -1.80361 -0.83721 42.85198 -11.20442 -7.70433 -21.90712 -9.38519 -1.02428 -2.86533 28.84015 3.6666 6.08626 -28.5448 -7.262 1.18288 2.8396
-0.06471 -0.01116 -0.15737 767.61963 -30.63647 -6.04955 25.81214 13.81509 -7.45809 -25.60581 18.56303 -2.11994 -13.9187 -14.53477 -30.43911 20.69204 80.52411 -5.60784 -1.98378 -47.3334 33.03123 -2.68335 61.45455 -82.60661 -1.44654 -0.77181 43.42579 -11.55337 -7.29299 -21.7849 -9.40849 -0.97301 -2.84149 29.3227 3.59765 6.02868 -28.62992 -7.32956 1.0151 2.76295
-0.06063 -0.01139 -0.15687 770.05625 -30.8793 -5.06568 25.27988 14.48739 -7.42122 -25.43367 18.57061 -2.11994 -13.06102 -15.04004 -31.02032 20.76761 80.52281 -5.65544 -2.20896 -47.5117 33.03784 -2.4552 60.31908 -82.94953 -1.07315 -0.68082 43.26871 -11.93684 -6.41095 -21.99458 -9.3676 -1.13814 -2.92024 29.36798 3.4828 6.09856 -28.51583 -7.42102 0.83638 2.68359
-0.05596 -0.01173 -0.15625 772.60177 -31.02028 -3.97542 24.72401 15.12415 -7.46611 -25.26599 18.5704 -2.11994 -12.18866 -15.61719 -31.58363 20.79577 80.51734 -5.68961 -2.42171 -47.62922 33.14557 -2.35322 59.35246 -83.28867 -0.68934 -0.58008 42.8672 -12.33223 -5.38158 -22.34065 -9.30381 -1.37895 -3.03492 29.27496 3.35149 6.21857 -28.34195 -7.52247 0.65648 2.6045
-0.05156 -0.01201 -0.15569 775.07122 -31.21183 -2.9381 24.18925 15.777 -7.4627 -25.0902 18.52931 -2.11994 -11.31576 -16.16333 -32.14052 20.85227 80.51567 -5.72484 -2.63703 -47.75886 33.19571 -2.20451 58.31094 -83.62578 -0.31028 -0.48397 42.60271 -12.72057 -4.44337 -22.6454 -9.25035 -1.58203 -3.13169 29.2608 3.22796 6.31922 -28.20451 -7.61944 0.48063 2.52684
-0.04715 -0.01235 -0.15512 777.65397 -31.38757 -1.87946 23.60824 16.43446 -7.50616 -24.93719 18.67235 -2.11994 -10.46644 -16.70438 -32.76368 20.88092 80.50622 -5.78225 -2.8665 -47.94482 33.29665 -2.01153 57.25051 -83.98026 0.06962 -0.38636 42.23337 -13.11558 -3.40134 -22.86643 -9.1974 -1.79906 -3.23509 29.18346 3.10303 6.4072 -28.03014 -7.71607 0.29013 2.44268
-0.04262 -0.01257 -0.15453 780.02687 -31.57066 -0.84032 23.11989 17.07084 -7.47135 -24.73848 18.4303 -2.11994 -9.57057 -17.27196 -33.24215 20.95739 80.51175 -5.78931 -3.06226 -48.00181 33.31617 -1.94207 56.27765 -84.29833 0.45136 -0.29001 42.01992 -13.50002 -2.54404 -23.28948 -9.13799 -2.00487 -3.33312 29.20377 2.97726 6.53176 -27.91837 -7.81641 0.12963 2.37204
-0.03796 -0.01245 -0.1539 781.78574 -31.80282 0.11348 22.8792 17.67436 -7.2019 -24.41784 17.14157 -2.11994 -8.50974 -17.90059 -33.33331 21.16062 80.5614 -5.66853 -3.17844 -47.7267 33.07315 -2.16261 55.46068 -84.50075 0.81749 -0.19706 42.32656 -13.84628 -2.196 -24.27842 -9.06546 -2.16386 -3.40885 29.51843 2.85231 6.75922 -27.98528 -7.91722 0.05446 2.33951
-0.03321 -0.01219 -0.15325 783.33139 -32.04317 1.04425 22.73414 18.25429 -6.85068 -24.05064 15.46525 -2.11994 -7.4118 -18.55231 -33.27819 21.41648 80.62595 -5.49623 -3.25937 -47.32371 32.7465 -2.50571 54.73668 -84.66885 1.18762 -0.10625 42.79052 -14.18191 -2.04418 -25.45779 -8.98771 -2.30867 -3.4778 29.93569 2.72746 7.02004 -28.11845 -8.02272 0.00916 2.32046
-0.02847 -0.01198 -0.1526 784.97891 -32.27924 1.98932 22.55619 18.83383 -6.53584 -23.70159 13.95507 -2.11994 -6.35581 -19.18964 -33.28331 21.65888 80.68248 -5.34209 -3.34923 -46.9746 32.4665 -2.80669 53.99858 -84.86329 1.56821 -0.01613 43.16547 -14.52715 -1.82836 -26.52347 -8.91242 -2.45803 -3.54887 30.31311 2.60294 7.2549 -28.22667 -8.13081 -0.05132 2.29469
-0.02384 -0.01184 -0.15195 786.60716 -32.52137 2.92365 22.33777 19.45946 -6.22684 -23.36493 12.47942 -2.11994 -5.18784 -19.84565 -33.31107 21.85523 80.74405 -5.20894 -3.46761 -46.64072 32.15447 -3.05825 53.14172 -85.01396 1.89966 0.08136 43.61491 -14.85532 -1.50708 -27.71051 -8.83442 -2.61726 -3.62482 30.66308 2.47546 7.53294 -28.31118 -8.21931 -0.10528 2.27135
-0.01897 -0.0115 -0.15131 788.22616 -32.74506 3.87135 22.22038 19.98349 -5.88557 -22.99185 10.84912 -2.11994 -4.25143 -20.46768 -33.26113 22.16097 80.79882 -5.02091 -3.51961 -46.24601 31.88688 -3.43585 52.55922 -85.2456 2.33139 0.16283 43.93838 -15.21303 -1.44655 -28.68575 -8.76305 -2.75251 -3.68907 31.08894 2.35535 7.73354 -28.46142 -8.34958 -0.16546 2.24626
-0.01339 -0.01066 -0.15071 789.84814 -32.996 4.87907 22.41503 20.23649 -5.47143 -22.52593 8.80868 -2.11994 -3.90538 -20.986 -32.99909 22.75311 80.83033 -4.68625 -3.38633 -45.71244 31.77101 -4.1681 52.65068 -85.72706 3.06385 0.20077 43.97624 -15.684 -2.12511 -29.04975 -8.69457 -2.81647 -3.71762 31.76589 2.247 7.66697 -28.77802 -8.59386 -0.25188 2.21197
